<?xml version="1.0" standalone="no"?>
<svg xmlns="http://www.w3.org/2000/svg" width="260.31860167967614" height="169.53735167967614" viewBox="0 0 260.31860167967614 169.53735167967614"><g fill="#23570b" color="#23570b" transform="translate(0 0) scale(1.6953736)"><svg width="100.0" height="100.0" x="0.0" y="0.0" viewBox="0 0 100 100"><title></title><path d="M78.61,16a21.46,21.46,0,0,0-14.42.65,28.6,28.6,0,0,0-28.37,0A21.45,21.45,0,0,0,21.39,16C15.16,18,10.05,23,6.21,31,2.45,38.72,2,44.61,4.86,48.47S12.74,52.89,16,52.89h.23c0,.15,0,.3,0,.46A47.23,47.23,0,0,0,17,61.9a12.35,12.35,0,0,0-1.31,5.5c0,5.45,3.66,10.5,10.31,14.2,6.4,3.58,14.92,5.55,24,5.55h.41c8.91-.06,17.26-2,23.57-5.54,6.65-3.71,10.31-8.75,10.31-14.2A12.35,12.35,0,0,0,83,61.9a47.23,47.23,0,0,0,.76-8.56c0-.15,0-.3,0-.46H84c3.29,0,8.4-.67,11.18-4.42s2.4-9.76-1.35-17.52C89.95,23,84.84,18,78.61,16ZM16.47,48.88c-2.46.06-6.53-.27-8.4-2.79S6.8,38.92,9.81,32.69c3.33-6.89,7.63-11.24,12.76-12.92a16.86,16.86,0,0,1,9-.31C23.33,25.94,17.6,36.59,16.47,48.88ZM50.19,67.21c-5-.87-6.81-5-7.42-7.16,7.51-3.58,12.8-1.22,14.7-.07C56.9,64.93,51.62,66.79,50.19,67.21ZM72,78.12c-5.28,3-12.22,4.68-19.73,5V70.74c3.88-1.39,9.31-5.06,9.21-11.8a2,2,0,0,0-.71-1.5c-.35-.3-8.73-7.14-21.27-.22a2,2,0,0,0-1,2c.4,3.4,3,9.84,9.79,11.67V83.11c-7.74-.23-14.91-2-20.33-5s-8.26-6.77-8.26-10.71a8.55,8.55,0,0,1,1.15-4.22l.36-.65-.15-.73a42.92,42.92,0,0,1-.82-8.47c0-20.13,13.34-36.5,29.74-36.5s29.74,16.37,29.74,36.5a42.92,42.92,0,0,1-.82,8.47l-.15.73.36.65a8.55,8.55,0,0,1,1.15,4.22C80.29,71.34,77.35,75.15,72,78.12Zm19.91-32c-1.77,2.4-5.7,2.86-8.4,2.81-1.13-12.31-6.86-23-15.09-29.44a16.81,16.81,0,0,1,8.93.31c5.16,1.67,9.47,6,12.81,12.93C93.2,38.92,93.8,43.55,91.93,46.08Z"></path><circle cx="40.79" cy="42.47" r="3.23"></circle><circle cx="59.21" cy="42.47" r="3.23"></circle></svg></g><path fill="#23570b" fill-rule="nonzero" d="M0 33.65L6.15 0.29L11.97 0.29L18.14 33.65L13.03 33.65L12.11 27.68L6.02 27.68L5.14 33.65L0 33.65ZM6.60 23.87L11.52 23.87L9.18 7.25L8.96 7.25L6.60 23.87ZM21.37 33.65L21.37 0.29L26.86 0.29Q27.79 0.29 28.92 0.37Q30.04 0.45 31.16 0.75Q32.29 1.05 33.33 1.66Q34.38 2.27 35.19 3.32Q36.00 4.38 36.48 5.97Q36.97 7.56 36.97 9.82L36.97 9.82L36.97 10.66Q36.97 14.47 35.88 16.87Q34.79 19.26 32.66 20.31L32.66 20.31L38.01 33.65L32.66 33.65L28.22 21.17L26.33 21.17L26.33 33.65L21.37 33.65ZM26.33 17.52L27.09 17.52Q28.42 17.52 29.34 17.23Q30.25 16.93 30.82 16.24Q31.39 15.55 31.64 14.40Q31.89 13.26 31.89 11.58L31.89 11.58L31.89 8.95Q31.89 7.66 31.66 6.72Q31.43 5.78 30.87 5.18Q30.31 4.57 29.39 4.28Q28.48 3.98 27.09 3.98L27.09 3.98L26.33 3.98L26.33 17.52ZM49.02 33.95L49.02 33.95Q48.24 33.95 47.33 33.82Q46.43 33.69 45.52 33.28Q44.61 32.87 43.78 32.12Q42.95 31.37 42.31 30.14Q41.68 28.91 41.30 27.10Q40.92 25.29 40.92 22.79L40.92 22.79L40.92 10.98Q40.92 8.46 41.31 6.67Q41.70 4.88 42.34 3.66Q42.99 2.44 43.83 1.72Q44.67 1.00 45.57 0.62Q46.46 0.23 47.35 0.12Q48.24 0 49.00 0L49.00 0Q51.00 0 52.33 0.56Q53.67 1.11 54.48 2.08Q55.29 3.05 55.63 4.34Q55.98 5.63 55.98 7.07L55.98 7.07Q55.98 8.14 55.87 9.05Q55.76 9.96 55.55 11.05L55.55 11.05L51.45 11.05L51.45 9.36Q51.45 6.60 50.84 5.23Q50.23 3.87 49.06 3.87L49.06 3.87Q48.36 3.87 47.83 4.14Q47.30 4.41 46.95 5.07Q46.60 5.72 46.42 6.80Q46.23 7.87 46.23 9.47L46.23 9.47L46.23 24.71Q46.23 26.27 46.38 27.30Q46.52 28.34 46.86 28.96Q47.19 29.59 47.72 29.85Q48.26 30.12 49.02 30.12L49.02 30.12Q49.51 30.12 49.96 29.89Q50.41 29.67 50.75 29.19Q51.09 28.71 51.30 27.98Q51.50 27.25 51.50 26.25L51.50 26.25L51.50 22.99L56.13 22.99L56.13 26.07Q56.13 30.10 54.30 32.01Q52.46 33.93 49.02 33.95ZM57.64 33.65L63.79 0.29L69.61 0.29L75.78 33.65L70.66 33.65L69.75 27.68L63.65 27.68L62.77 33.65L57.64 33.65ZM64.24 23.87L69.16 23.87L66.82 7.25L66.60 7.25L64.24 23.87Z" transform="translate(184.538 0) scale(1)"></path><path fill="#23570b" fill-rule="nonzero" d="M0 33.36L0 0L5.25 0Q6.45 0 7.72 0.07Q9.00 0.14 10.22 0.49Q11.45 0.84 12.53 1.57Q13.61 2.30 14.43 3.62Q15.25 4.94 15.73 6.94Q16.21 8.95 16.21 11.84L16.21 11.84L16.21 21.52Q16.21 24.41 15.73 26.43Q15.25 28.44 14.43 29.75Q13.61 31.05 12.53 31.79Q11.45 32.52 10.22 32.87Q9.00 33.22 7.72 33.29Q6.45 33.36 5.25 33.36L5.25 33.36L0 33.36ZM5.06 29.82L6.35 29.82Q7.71 29.82 8.60 29.47Q9.49 29.12 10.01 28.23Q10.53 27.34 10.72 25.81Q10.92 24.28 10.92 21.93L10.92 21.93L10.92 11.58Q10.92 9.24 10.72 7.71Q10.53 6.17 10.01 5.28Q9.49 4.39 8.60 4.04Q7.71 3.69 6.35 3.69L6.35 3.69L5.06 3.69L5.06 29.82ZM20.72 33.36L20.72 0L33.09 0L33.09 3.98L25.78 3.98L25.78 13.96L31.43 13.96L31.43 17.95L25.78 17.95L25.78 29.38L33.28 29.38L33.28 33.36L20.72 33.36Z" transform="translate(184.538 41.946) scale(2.277)"></path><path fill="#23570b" fill-rule="nonzero" d="M6.62 40.66L6.62 40.66Q4.75 40.66 3.48 40.08Q2.21 39.49 1.44 38.49Q0.66 37.48 0.33 36.13Q0 34.79 0 33.28L0 33.28Q0 32.23 0.14 30.91Q0.27 29.59 0.55 28.26L0.55 28.26L4.59 28.26L4.53 32.32Q4.53 33.61 4.65 34.48Q4.77 35.35 5.01 35.87Q5.25 36.39 5.63 36.61Q6.02 36.84 6.56 36.84L6.56 36.84Q7.01 36.84 7.37 36.66Q7.73 36.48 7.99 36.04Q8.24 35.61 8.38 34.85Q8.52 34.10 8.52 32.97L8.52 32.97L8.57 6.99L13.63 6.99L13.63 32.27Q13.63 34.84 13.05 36.48Q12.46 38.13 11.47 39.05Q10.49 39.98 9.23 40.32Q7.97 40.66 6.62 40.66ZM16.74 40.35L22.89 6.99L28.71 6.99L34.88 40.35L29.77 40.35L28.85 34.38L22.75 34.38L21.88 40.35L16.74 40.35ZM23.34 30.57L28.26 30.57L25.92 13.95L25.70 13.95L23.34 30.57ZM38.11 40.35L38.11 6.99L50.47 6.99L50.47 10.98L43.16 10.98L43.16 20.96L48.81 20.96L48.81 24.94L43.16 24.94L43.16 36.37L50.66 36.37L50.66 40.35L38.11 40.35ZM44.61 6.50L42.56 4.22L48.83 0L51.35 3.26L44.61 6.50ZM54.32 40.35L54.32 6.99L58.42 6.99L66.50 29.32L66.62 29.32Q66.56 28.54 66.46 27.58Q66.37 26.62 66.29 25.40Q66.21 24.18 66.15 22.64Q66.09 21.09 66.09 19.16L66.09 19.16L66.09 6.99L70.63 6.99L70.63 40.35L66.48 40.35L58.44 18.61L58.28 18.61Q58.34 19.49 58.44 20.52Q58.54 21.54 58.61 22.93Q58.69 24.32 58.75 26.16Q58.81 28.01 58.81 30.55L58.81 30.55L58.81 40.35L54.32 40.35Z" transform="translate(184.538 125.905) scale(1.074)"></path></svg>